<mxfile host="app.diagrams.net" modified="2021-08-27T08:43:53.715Z" agent="5.0 (Macintosh; Intel Mac OS X 10_15_7) AppleWebKit/537.36 (KHTML, like Gecko) Chrome/92.0.4515.159 Safari/537.36" etag="SJrhvqYjPINRAtIBRAkt" version="15.0.2" type="github">
  <diagram id="sKZkxAPLEzLMo9u4rX9n" name="Page-1">
    <mxGraphModel dx="1369" dy="744" grid="1" gridSize="10" guides="1" tooltips="1" connect="1" arrows="1" fold="1" page="1" pageScale="1" pageWidth="827" pageHeight="1169" math="0" shadow="0">
      <root>
        <mxCell id="0" />
        <mxCell id="1" parent="0" />
        <mxCell id="g-NUpueoYw5j4iVWeCIo-1" value="" style="edgeStyle=none;rounded=1;jumpStyle=none;jumpSize=6;html=1;shadow=0;labelBackgroundColor=none;startArrow=none;startFill=0;endArrow=classic;endFill=1;jettySize=auto;orthogonalLoop=1;strokeColor=#1A1A1A;strokeWidth=2;fillColor=#B3FF66;gradientColor=#CCFF99;fontFamily=Comic Sans MS;fontSize=14;fontColor=#1A1A1A;" edge="1" parent="1" source="g-NUpueoYw5j4iVWeCIo-3" target="g-NUpueoYw5j4iVWeCIo-7">
          <mxGeometry relative="1" as="geometry" />
        </mxCell>
        <mxCell id="g-NUpueoYw5j4iVWeCIo-2" style="edgeStyle=none;rounded=1;jumpStyle=none;jumpSize=6;html=1;shadow=0;labelBackgroundColor=none;startArrow=none;startFill=0;endArrow=classic;endFill=1;jettySize=auto;orthogonalLoop=1;strokeColor=#1A1A1A;strokeWidth=2;fillColor=#B3FF66;gradientColor=#CCFF99;fontFamily=Comic Sans MS;fontSize=14;fontColor=#1A1A1A;exitX=0.5;exitY=1;" edge="1" parent="1" source="g-NUpueoYw5j4iVWeCIo-3">
          <mxGeometry relative="1" as="geometry">
            <mxPoint x="359" y="200" as="targetPoint" />
          </mxGeometry>
        </mxCell>
        <mxCell id="g-NUpueoYw5j4iVWeCIo-3" value="Producer" style="rounded=1;whiteSpace=wrap;html=1;labelBackgroundColor=none;strokeColor=#1A1A1A;strokeWidth=2;fillColor=#F2F2F2;gradientColor=none;fontFamily=Comic Sans MS;fontSize=14;fontColor=#1A1A1A;align=center;" vertex="1" parent="1">
          <mxGeometry x="155" y="80" width="90" height="40" as="geometry" />
        </mxCell>
        <mxCell id="g-NUpueoYw5j4iVWeCIo-4" style="edgeStyle=none;rounded=1;jumpStyle=none;jumpSize=6;html=1;entryX=0.5;entryY=0;shadow=0;labelBackgroundColor=none;startArrow=none;startFill=0;endArrow=classic;endFill=1;jettySize=auto;orthogonalLoop=1;strokeColor=#1A1A1A;strokeWidth=2;fillColor=#B3FF66;gradientColor=#CCFF99;fontFamily=Comic Sans MS;fontSize=14;fontColor=#1A1A1A;exitX=0.5;exitY=1;" edge="1" parent="1" source="g-NUpueoYw5j4iVWeCIo-6" target="g-NUpueoYw5j4iVWeCIo-7">
          <mxGeometry relative="1" as="geometry" />
        </mxCell>
        <mxCell id="g-NUpueoYw5j4iVWeCIo-5" style="edgeStyle=none;rounded=1;jumpStyle=none;jumpSize=6;html=1;entryX=0.5;entryY=0;shadow=0;labelBackgroundColor=none;startArrow=none;startFill=0;endArrow=classic;endFill=1;jettySize=auto;orthogonalLoop=1;strokeColor=#1A1A1A;strokeWidth=2;fillColor=#B3FF66;gradientColor=#CCFF99;fontFamily=Comic Sans MS;fontSize=14;fontColor=#1A1A1A;exitX=0.5;exitY=1;" edge="1" parent="1" source="g-NUpueoYw5j4iVWeCIo-6" target="g-NUpueoYw5j4iVWeCIo-17">
          <mxGeometry relative="1" as="geometry" />
        </mxCell>
        <mxCell id="g-NUpueoYw5j4iVWeCIo-6" value="Producer" style="rounded=1;whiteSpace=wrap;html=1;labelBackgroundColor=none;strokeColor=#1A1A1A;strokeWidth=2;fillColor=#F2F2F2;gradientColor=none;fontFamily=Comic Sans MS;fontSize=14;fontColor=#1A1A1A;align=center;" vertex="1" parent="1">
          <mxGeometry x="320" y="80" width="90" height="40" as="geometry" />
        </mxCell>
        <mxCell id="g-NUpueoYw5j4iVWeCIo-7" value="" style="rounded=0;whiteSpace=wrap;html=1;labelBackgroundColor=none;strokeColor=#FFFFFF;strokeWidth=2;fillColor=#66B2FF;gradientColor=none;fontFamily=Comic Sans MS;fontSize=14;fontColor=#1A1A1A;align=center;" vertex="1" parent="1">
          <mxGeometry x="140" y="200" width="120" height="210" as="geometry" />
        </mxCell>
        <mxCell id="g-NUpueoYw5j4iVWeCIo-8" value="&lt;font style=&quot;font-size: 12px&quot;&gt;TopicA-Part0&lt;/font&gt;" style="rounded=0;whiteSpace=wrap;html=1;labelBackgroundColor=none;strokeColor=#1A1A1A;strokeWidth=2;fillColor=#E5CCFF;gradientColor=none;fontFamily=Comic Sans MS;fontSize=14;fontColor=#1A1A1A;align=center;" vertex="1" parent="1">
          <mxGeometry x="155" y="242" width="90" height="40" as="geometry" />
        </mxCell>
        <mxCell id="g-NUpueoYw5j4iVWeCIo-9" value="Leader" style="text;html=1;strokeColor=none;fillColor=none;align=center;verticalAlign=middle;whiteSpace=wrap;rounded=0;labelBackgroundColor=none;fontFamily=Comic Sans MS;fontSize=14;fontColor=#1A1A1A;" vertex="1" parent="1">
          <mxGeometry x="179" y="216" width="40" height="20" as="geometry" />
        </mxCell>
        <mxCell id="g-NUpueoYw5j4iVWeCIo-10" value="&lt;font style=&quot;font-size: 12px&quot;&gt;TopicA-Part1&lt;/font&gt;" style="rounded=0;whiteSpace=wrap;html=1;labelBackgroundColor=none;strokeColor=#1A1A1A;strokeWidth=2;fillColor=#99FFCC;gradientColor=none;fontFamily=Comic Sans MS;fontSize=14;fontColor=#1A1A1A;align=center;" vertex="1" parent="1">
          <mxGeometry x="155" y="332" width="90" height="40" as="geometry" />
        </mxCell>
        <mxCell id="g-NUpueoYw5j4iVWeCIo-11" value="Follower" style="text;html=1;strokeColor=none;fillColor=none;align=center;verticalAlign=middle;whiteSpace=wrap;rounded=0;labelBackgroundColor=none;fontFamily=Comic Sans MS;fontSize=14;fontColor=#1A1A1A;" vertex="1" parent="1">
          <mxGeometry x="180" y="307" width="40" height="20" as="geometry" />
        </mxCell>
        <mxCell id="g-NUpueoYw5j4iVWeCIo-12" value="" style="rounded=0;whiteSpace=wrap;html=1;labelBackgroundColor=none;strokeColor=#FFFFFF;strokeWidth=2;fillColor=#66B2FF;gradientColor=none;fontFamily=Comic Sans MS;fontSize=14;fontColor=#1A1A1A;align=center;" vertex="1" parent="1">
          <mxGeometry x="299" y="200" width="120" height="210" as="geometry" />
        </mxCell>
        <mxCell id="g-NUpueoYw5j4iVWeCIo-13" value="&lt;font style=&quot;font-size: 12px&quot;&gt;TopicA-Part0&lt;/font&gt;" style="rounded=0;whiteSpace=wrap;html=1;labelBackgroundColor=none;strokeColor=#1A1A1A;strokeWidth=2;fillColor=#E5CCFF;gradientColor=none;fontFamily=Comic Sans MS;fontSize=14;fontColor=#1A1A1A;align=center;" vertex="1" parent="1">
          <mxGeometry x="314" y="242" width="90" height="40" as="geometry" />
        </mxCell>
        <mxCell id="g-NUpueoYw5j4iVWeCIo-14" value="Follower" style="text;html=1;strokeColor=none;fillColor=none;align=center;verticalAlign=middle;whiteSpace=wrap;rounded=0;labelBackgroundColor=none;fontFamily=Comic Sans MS;fontSize=14;fontColor=#1A1A1A;" vertex="1" parent="1">
          <mxGeometry x="338" y="216" width="40" height="20" as="geometry" />
        </mxCell>
        <mxCell id="g-NUpueoYw5j4iVWeCIo-15" value="&lt;font style=&quot;font-size: 12px&quot;&gt;TopicA-Part2&lt;/font&gt;" style="rounded=0;whiteSpace=wrap;html=1;labelBackgroundColor=none;strokeColor=#1A1A1A;strokeWidth=2;fillColor=#FFFF99;gradientColor=none;fontFamily=Comic Sans MS;fontSize=14;fontColor=#1A1A1A;align=center;" vertex="1" parent="1">
          <mxGeometry x="314" y="332" width="90" height="40" as="geometry" />
        </mxCell>
        <mxCell id="g-NUpueoYw5j4iVWeCIo-16" value="Leader" style="text;html=1;strokeColor=none;fillColor=none;align=center;verticalAlign=middle;whiteSpace=wrap;rounded=0;labelBackgroundColor=none;fontFamily=Comic Sans MS;fontSize=14;fontColor=#1A1A1A;" vertex="1" parent="1">
          <mxGeometry x="339" y="307" width="40" height="20" as="geometry" />
        </mxCell>
        <mxCell id="g-NUpueoYw5j4iVWeCIo-17" value="" style="rounded=0;whiteSpace=wrap;html=1;labelBackgroundColor=none;strokeColor=#FFFFFF;strokeWidth=2;fillColor=#66B2FF;gradientColor=none;fontFamily=Comic Sans MS;fontSize=14;fontColor=#1A1A1A;align=center;" vertex="1" parent="1">
          <mxGeometry x="460" y="200" width="120" height="210" as="geometry" />
        </mxCell>
        <mxCell id="g-NUpueoYw5j4iVWeCIo-18" value="&lt;font style=&quot;font-size: 12px&quot;&gt;TopicA-Part1&lt;/font&gt;" style="rounded=0;whiteSpace=wrap;html=1;labelBackgroundColor=none;strokeColor=#1A1A1A;strokeWidth=2;fillColor=#99FFCC;gradientColor=none;fontFamily=Comic Sans MS;fontSize=14;fontColor=#1A1A1A;align=center;" vertex="1" parent="1">
          <mxGeometry x="475" y="242" width="90" height="40" as="geometry" />
        </mxCell>
        <mxCell id="g-NUpueoYw5j4iVWeCIo-19" value="Leader" style="text;html=1;strokeColor=none;fillColor=none;align=center;verticalAlign=middle;whiteSpace=wrap;rounded=0;labelBackgroundColor=none;fontFamily=Comic Sans MS;fontSize=14;fontColor=#1A1A1A;" vertex="1" parent="1">
          <mxGeometry x="499" y="216" width="40" height="20" as="geometry" />
        </mxCell>
        <mxCell id="g-NUpueoYw5j4iVWeCIo-20" value="&lt;font style=&quot;font-size: 12px&quot;&gt;TopicA-Part2&lt;/font&gt;" style="rounded=0;whiteSpace=wrap;html=1;labelBackgroundColor=none;strokeColor=#1A1A1A;strokeWidth=2;fillColor=#FFFF99;gradientColor=none;fontFamily=Comic Sans MS;fontSize=14;fontColor=#1A1A1A;align=center;" vertex="1" parent="1">
          <mxGeometry x="475" y="332" width="90" height="40" as="geometry" />
        </mxCell>
        <mxCell id="g-NUpueoYw5j4iVWeCIo-21" value="Follower" style="text;html=1;strokeColor=none;fillColor=none;align=center;verticalAlign=middle;whiteSpace=wrap;rounded=0;labelBackgroundColor=none;fontFamily=Comic Sans MS;fontSize=14;fontColor=#1A1A1A;" vertex="1" parent="1">
          <mxGeometry x="500" y="307" width="40" height="20" as="geometry" />
        </mxCell>
        <mxCell id="g-NUpueoYw5j4iVWeCIo-22" value="Partitioned Data&lt;div&gt;Publication&lt;/div&gt;" style="text;html=1;strokeColor=none;fillColor=none;align=center;verticalAlign=middle;whiteSpace=wrap;rounded=0;labelBackgroundColor=none;fontFamily=Comic Sans MS;fontSize=14;fontColor=#1A1A1A;" vertex="1" parent="1">
          <mxGeometry x="47" y="140" width="80" height="40" as="geometry" />
        </mxCell>
        <mxCell id="g-NUpueoYw5j4iVWeCIo-23" style="edgeStyle=none;rounded=1;jumpStyle=none;jumpSize=6;html=1;entryX=0.5;entryY=0;shadow=0;labelBackgroundColor=none;startArrow=none;startFill=0;endArrow=classic;endFill=1;jettySize=auto;orthogonalLoop=1;strokeColor=#1A1A1A;strokeWidth=2;fillColor=#B3FF66;gradientColor=#CCFF99;fontFamily=Comic Sans MS;fontSize=14;fontColor=#1A1A1A;" edge="1" parent="1" source="g-NUpueoYw5j4iVWeCIo-25" target="g-NUpueoYw5j4iVWeCIo-17">
          <mxGeometry relative="1" as="geometry" />
        </mxCell>
        <mxCell id="g-NUpueoYw5j4iVWeCIo-24" style="edgeStyle=none;rounded=1;jumpStyle=none;jumpSize=6;html=1;entryX=0.5;entryY=0;shadow=0;labelBackgroundColor=none;startArrow=none;startFill=0;endArrow=classic;endFill=1;jettySize=auto;orthogonalLoop=1;strokeColor=#1A1A1A;strokeWidth=2;fillColor=#B3FF66;gradientColor=#CCFF99;fontFamily=Comic Sans MS;fontSize=14;fontColor=#1A1A1A;exitX=0.5;exitY=1;" edge="1" parent="1" source="g-NUpueoYw5j4iVWeCIo-25" target="g-NUpueoYw5j4iVWeCIo-12">
          <mxGeometry relative="1" as="geometry" />
        </mxCell>
        <mxCell id="g-NUpueoYw5j4iVWeCIo-25" value="Producer" style="rounded=1;whiteSpace=wrap;html=1;labelBackgroundColor=none;strokeColor=#1A1A1A;strokeWidth=2;fillColor=#F2F2F2;gradientColor=none;fontFamily=Comic Sans MS;fontSize=14;fontColor=#1A1A1A;align=center;" vertex="1" parent="1">
          <mxGeometry x="474" y="80" width="90" height="40" as="geometry" />
        </mxCell>
        <mxCell id="g-NUpueoYw5j4iVWeCIo-26" value="(Push)" style="text;html=1;resizable=0;points=[];autosize=1;align=left;verticalAlign=top;spacingTop=-4;fontSize=14;fontFamily=Comic Sans MS;fontColor=#1A1A1A;" vertex="1" parent="1">
          <mxGeometry x="135" y="150" width="60" height="20" as="geometry" />
        </mxCell>
        <mxCell id="g-NUpueoYw5j4iVWeCIo-27" style="edgeStyle=none;rounded=1;jumpStyle=none;jumpSize=6;html=1;entryX=1;entryY=0.5;shadow=0;labelBackgroundColor=none;startArrow=none;startFill=0;endArrow=classic;endFill=1;jettySize=auto;orthogonalLoop=1;strokeColor=#97D077;strokeWidth=2;fillColor=#B3FF66;gradientColor=#CCFF99;fontFamily=Comic Sans MS;fontSize=14;fontColor=#1A1A1A;" edge="1" parent="1" source="g-NUpueoYw5j4iVWeCIo-30" target="g-NUpueoYw5j4iVWeCIo-17">
          <mxGeometry relative="1" as="geometry" />
        </mxCell>
        <mxCell id="g-NUpueoYw5j4iVWeCIo-28" style="edgeStyle=elbowEdgeStyle;rounded=1;jumpStyle=none;jumpSize=6;html=1;entryX=0.5;entryY=0;shadow=0;labelBackgroundColor=none;startArrow=none;startFill=0;endArrow=classic;endFill=1;jettySize=auto;orthogonalLoop=1;strokeColor=#97D077;strokeWidth=2;fillColor=#B3FF66;gradientColor=#CCFF99;fontFamily=Comic Sans MS;fontSize=14;fontColor=#1A1A1A;" edge="1" parent="1" source="g-NUpueoYw5j4iVWeCIo-30" target="g-NUpueoYw5j4iVWeCIo-12">
          <mxGeometry relative="1" as="geometry">
            <Array as="points">
              <mxPoint x="560" y="180" />
            </Array>
          </mxGeometry>
        </mxCell>
        <mxCell id="g-NUpueoYw5j4iVWeCIo-29" style="edgeStyle=elbowEdgeStyle;rounded=1;jumpStyle=none;jumpSize=6;html=1;entryX=0.5;entryY=1;shadow=0;labelBackgroundColor=none;startArrow=none;startFill=0;endArrow=classic;endFill=1;jettySize=auto;orthogonalLoop=1;strokeColor=#97D077;strokeWidth=2;fillColor=#B3FF66;gradientColor=#CCFF99;fontFamily=Comic Sans MS;fontSize=14;fontColor=#1A1A1A;exitX=0.5;exitY=1;" edge="1" parent="1" source="g-NUpueoYw5j4iVWeCIo-30" target="g-NUpueoYw5j4iVWeCIo-7">
          <mxGeometry relative="1" as="geometry">
            <Array as="points">
              <mxPoint x="490" y="440" />
              <mxPoint x="760" y="410" />
            </Array>
          </mxGeometry>
        </mxCell>
        <mxCell id="g-NUpueoYw5j4iVWeCIo-30" value="ZooKeeper" style="rounded=1;whiteSpace=wrap;html=1;labelBackgroundColor=none;strokeColor=#1A1A1A;strokeWidth=2;fillColor=#00CC66;gradientColor=none;fontFamily=Comic Sans MS;fontSize=14;fontColor=#1A1A1A;align=center;" vertex="1" parent="1">
          <mxGeometry x="710" y="283" width="110" height="45" as="geometry" />
        </mxCell>
        <mxCell id="g-NUpueoYw5j4iVWeCIo-31" value="" style="rounded=0;whiteSpace=wrap;html=1;labelBackgroundColor=none;strokeColor=#1A1A1A;strokeWidth=2;fillColor=none;gradientColor=none;fontFamily=Comic Sans MS;fontSize=14;fontColor=#1A1A1A;align=center;dashed=1;" vertex="1" parent="1">
          <mxGeometry x="65" y="514" width="340" height="100" as="geometry" />
        </mxCell>
        <mxCell id="g-NUpueoYw5j4iVWeCIo-32" style="edgeStyle=none;rounded=1;jumpStyle=none;jumpSize=6;html=1;entryX=0.5;entryY=1;shadow=0;labelBackgroundColor=none;startArrow=none;startFill=0;endArrow=classic;endFill=1;jettySize=auto;orthogonalLoop=1;strokeColor=#1A1A1A;strokeWidth=2;fillColor=#B3FF66;gradientColor=#CCFF99;fontFamily=Comic Sans MS;fontSize=14;fontColor=#1A1A1A;exitX=0.5;exitY=0;" edge="1" parent="1" source="g-NUpueoYw5j4iVWeCIo-33" target="g-NUpueoYw5j4iVWeCIo-12">
          <mxGeometry relative="1" as="geometry" />
        </mxCell>
        <mxCell id="g-NUpueoYw5j4iVWeCIo-33" value="Consumer" style="rounded=1;whiteSpace=wrap;html=1;labelBackgroundColor=none;strokeColor=#1A1A1A;strokeWidth=2;fillColor=#FFCC99;gradientColor=none;fontFamily=Comic Sans MS;fontSize=14;fontColor=#1A1A1A;align=center;" vertex="1" parent="1">
          <mxGeometry x="190" y="534" width="91" height="40" as="geometry" />
        </mxCell>
        <mxCell id="g-NUpueoYw5j4iVWeCIo-34" style="edgeStyle=none;rounded=1;jumpStyle=none;jumpSize=6;html=1;entryX=0.5;entryY=1;shadow=0;labelBackgroundColor=none;startArrow=none;startFill=0;endArrow=classic;endFill=1;jettySize=auto;orthogonalLoop=1;strokeColor=#1A1A1A;strokeWidth=2;fillColor=#B3FF66;gradientColor=#CCFF99;fontFamily=Comic Sans MS;fontSize=14;fontColor=#1A1A1A;exitX=0.5;exitY=0;" edge="1" parent="1" source="g-NUpueoYw5j4iVWeCIo-35" target="g-NUpueoYw5j4iVWeCIo-17">
          <mxGeometry relative="1" as="geometry" />
        </mxCell>
        <mxCell id="g-NUpueoYw5j4iVWeCIo-35" value="Consumer" style="rounded=1;whiteSpace=wrap;html=1;labelBackgroundColor=none;strokeColor=#1A1A1A;strokeWidth=2;fillColor=#FFCC99;gradientColor=none;fontFamily=Comic Sans MS;fontSize=14;fontColor=#1A1A1A;align=center;" vertex="1" parent="1">
          <mxGeometry x="298" y="534" width="91" height="40" as="geometry" />
        </mxCell>
        <mxCell id="g-NUpueoYw5j4iVWeCIo-36" value="Consumer Group1" style="text;html=1;strokeColor=none;fillColor=none;align=center;verticalAlign=middle;whiteSpace=wrap;rounded=0;labelBackgroundColor=none;fontFamily=Comic Sans MS;fontSize=14;fontColor=#1A1A1A;" vertex="1" parent="1">
          <mxGeometry x="170" y="584" width="130" height="20" as="geometry" />
        </mxCell>
        <mxCell id="g-NUpueoYw5j4iVWeCIo-37" style="rounded=1;jumpStyle=none;jumpSize=6;html=1;entryX=0.5;entryY=1;shadow=0;labelBackgroundColor=none;startArrow=none;startFill=0;endArrow=classic;endFill=1;jettySize=auto;orthogonalLoop=1;strokeColor=#1A1A1A;strokeWidth=2;fillColor=#B3FF66;gradientColor=#CCFF99;fontFamily=Comic Sans MS;fontSize=14;fontColor=#1A1A1A;" edge="1" parent="1" source="g-NUpueoYw5j4iVWeCIo-38" target="g-NUpueoYw5j4iVWeCIo-7">
          <mxGeometry relative="1" as="geometry" />
        </mxCell>
        <mxCell id="g-NUpueoYw5j4iVWeCIo-38" value="Consumer" style="rounded=1;whiteSpace=wrap;html=1;labelBackgroundColor=none;strokeColor=#1A1A1A;strokeWidth=2;fillColor=#FFCC99;gradientColor=none;fontFamily=Comic Sans MS;fontSize=14;fontColor=#1A1A1A;align=center;" vertex="1" parent="1">
          <mxGeometry x="81" y="534" width="91" height="40" as="geometry" />
        </mxCell>
        <mxCell id="g-NUpueoYw5j4iVWeCIo-39" value="" style="rounded=0;whiteSpace=wrap;html=1;labelBackgroundColor=none;strokeColor=#1A1A1A;strokeWidth=2;fillColor=none;gradientColor=none;fontFamily=Comic Sans MS;fontSize=14;fontColor=#1A1A1A;align=center;dashed=1;" vertex="1" parent="1">
          <mxGeometry x="430" y="514" width="235" height="100" as="geometry" />
        </mxCell>
        <mxCell id="g-NUpueoYw5j4iVWeCIo-40" style="edgeStyle=none;rounded=1;jumpStyle=none;jumpSize=6;html=1;entryX=0.5;entryY=1;shadow=0;labelBackgroundColor=none;startArrow=none;startFill=0;endArrow=classic;endFill=1;jettySize=auto;orthogonalLoop=1;strokeColor=#1A1A1A;strokeWidth=2;fillColor=#B3FF66;gradientColor=#CCFF99;fontFamily=Comic Sans MS;fontSize=14;fontColor=#CCE5FF;exitX=0.5;exitY=0;" edge="1" parent="1" source="g-NUpueoYw5j4iVWeCIo-41" target="g-NUpueoYw5j4iVWeCIo-17">
          <mxGeometry relative="1" as="geometry" />
        </mxCell>
        <mxCell id="g-NUpueoYw5j4iVWeCIo-41" value="Consumer" style="rounded=1;whiteSpace=wrap;html=1;labelBackgroundColor=none;strokeColor=#1A1A1A;strokeWidth=2;fillColor=#FFCC99;gradientColor=none;fontFamily=Comic Sans MS;fontSize=14;fontColor=#1A1A1A;align=center;" vertex="1" parent="1">
          <mxGeometry x="555" y="534" width="91" height="40" as="geometry" />
        </mxCell>
        <mxCell id="g-NUpueoYw5j4iVWeCIo-42" value="Consumer Group2" style="text;html=1;strokeColor=none;fillColor=none;align=center;verticalAlign=middle;whiteSpace=wrap;rounded=0;labelBackgroundColor=none;fontFamily=Comic Sans MS;fontSize=14;fontColor=#1A1A1A;" vertex="1" parent="1">
          <mxGeometry x="492" y="584" width="130" height="20" as="geometry" />
        </mxCell>
        <mxCell id="g-NUpueoYw5j4iVWeCIo-43" style="edgeStyle=none;rounded=1;jumpStyle=none;jumpSize=6;html=1;entryX=0.5;entryY=1;shadow=0;labelBackgroundColor=none;startArrow=none;startFill=0;endArrow=classic;endFill=1;jettySize=auto;orthogonalLoop=1;strokeColor=#1A1A1A;strokeWidth=2;fillColor=#B3FF66;gradientColor=#CCFF99;fontFamily=Comic Sans MS;fontSize=14;fontColor=#CCE5FF;exitX=0.5;exitY=0;" edge="1" parent="1" source="g-NUpueoYw5j4iVWeCIo-45" target="g-NUpueoYw5j4iVWeCIo-7">
          <mxGeometry relative="1" as="geometry" />
        </mxCell>
        <mxCell id="g-NUpueoYw5j4iVWeCIo-44" style="edgeStyle=none;rounded=1;jumpStyle=none;jumpSize=6;html=1;entryX=0.5;entryY=1;shadow=0;labelBackgroundColor=none;startArrow=none;startFill=0;endArrow=classic;endFill=1;jettySize=auto;orthogonalLoop=1;strokeColor=#1A1A1A;strokeWidth=2;fillColor=#B3FF66;gradientColor=#CCFF99;fontFamily=Comic Sans MS;fontSize=14;fontColor=#CCE5FF;exitX=0.5;exitY=0;" edge="1" parent="1" source="g-NUpueoYw5j4iVWeCIo-45" target="g-NUpueoYw5j4iVWeCIo-12">
          <mxGeometry relative="1" as="geometry" />
        </mxCell>
        <mxCell id="g-NUpueoYw5j4iVWeCIo-45" value="Consumer" style="rounded=1;whiteSpace=wrap;html=1;labelBackgroundColor=none;strokeColor=#1A1A1A;strokeWidth=2;fillColor=#FFCC99;gradientColor=none;fontFamily=Comic Sans MS;fontSize=14;fontColor=#1A1A1A;align=center;" vertex="1" parent="1">
          <mxGeometry x="446" y="534" width="91" height="40" as="geometry" />
        </mxCell>
        <mxCell id="g-NUpueoYw5j4iVWeCIo-46" value="Broker1" style="text;html=1;strokeColor=none;fillColor=none;align=center;verticalAlign=middle;whiteSpace=wrap;rounded=0;dashed=1;labelBackgroundColor=none;fontFamily=Comic Sans MS;fontSize=14;fontColor=#CCE5FF;" vertex="1" parent="1">
          <mxGeometry x="179" y="380" width="40" height="20" as="geometry" />
        </mxCell>
        <mxCell id="g-NUpueoYw5j4iVWeCIo-47" value="Broker2" style="text;html=1;strokeColor=none;fillColor=none;align=center;verticalAlign=middle;whiteSpace=wrap;rounded=0;dashed=1;labelBackgroundColor=none;fontFamily=Comic Sans MS;fontSize=14;fontColor=#CCE5FF;" vertex="1" parent="1">
          <mxGeometry x="339" y="380" width="40" height="20" as="geometry" />
        </mxCell>
        <mxCell id="g-NUpueoYw5j4iVWeCIo-48" value="Broker3" style="text;html=1;strokeColor=none;fillColor=none;align=center;verticalAlign=middle;whiteSpace=wrap;rounded=0;dashed=1;labelBackgroundColor=none;fontFamily=Comic Sans MS;fontSize=14;fontColor=#CCE5FF;" vertex="1" parent="1">
          <mxGeometry x="500" y="380" width="40" height="20" as="geometry" />
        </mxCell>
        <mxCell id="g-NUpueoYw5j4iVWeCIo-49" value="Ordered&lt;div&gt;Subscription&lt;/div&gt;" style="text;html=1;strokeColor=none;fillColor=none;align=center;verticalAlign=middle;whiteSpace=wrap;rounded=0;labelBackgroundColor=none;fontFamily=Comic Sans MS;fontSize=14;fontColor=#1A1A1A;" vertex="1" parent="1">
          <mxGeometry x="30" y="430" width="80" height="30" as="geometry" />
        </mxCell>
        <mxCell id="g-NUpueoYw5j4iVWeCIo-50" value="(Pull)" style="text;html=1;resizable=0;points=[];autosize=1;align=left;verticalAlign=top;spacingTop=-4;fontSize=14;fontFamily=Comic Sans MS;fontColor=#1A1A1A;" vertex="1" parent="1">
          <mxGeometry x="125" y="435" width="50" height="20" as="geometry" />
        </mxCell>
      </root>
    </mxGraphModel>
  </diagram>
</mxfile>
